<svg width="53" height="53" xmlns="http://www.w3.org/2000/svg" xmlns:xlink="http://www.w3.org/1999/xlink" xml:space="preserve" overflow="hidden"><g transform="translate(-415 -42)"><path d="M465.399 62.4392C465.364 61.9441 465.004 61.5327 464.518 61.4333L458.68 60.2414C458.317 60.1662 457.941 60.2794 457.679 60.5423L456.5 61.721 448.661 53.8814C448.566 55.4877 447.699 56.9487 446.334 57.8012L453.377 64.8441 452.238 65.9836C451.979 66.2424 451.866 66.6125 451.934 66.9718L453.063 72.8703C453.158 73.3634 453.573 73.7307 454.074 73.7641L459.93 74.1544C459.954 74.1544 459.979 74.1572 460.004 74.1572 460.614 74.1772 461.125 73.699 461.145 73.0892 461.164 72.4794 460.686 71.9688 460.077 71.9489L455.071 71.6176 454.213 67.1319 458.821 62.5237 463.252 63.4264 463.587 68.4415C463.627 69.0504 464.154 69.5111 464.763 69.4706 465.371 69.43 465.832 68.9035 465.792 68.2946Z" fill="#FFFFFF"/><path d="M438.707 70.1237C438.707 68.349 438.2 66.6113 437.245 65.1157L433.349 69.7698C431.333 72.186 427.74 72.5107 425.324 70.4949 422.908 68.4792 422.583 64.8864 424.599 62.4702 424.818 62.2072 425.061 61.9646 425.324 61.7453L425.467 61.6249C422.139 63.1438 420.003 66.4651 420.002 70.1237L420.002 80.6458 438.707 80.6458Z" fill="#FFFFFF"/><path d="M438.74 53.5938C438.74 53.2577 438.774 52.9225 438.841 52.5934L426.386 63.0151C424.675 64.4485 424.45 66.9973 425.883 68.7081 427.317 70.4189 429.866 70.6437 431.577 69.2103 431.758 69.058 431.926 68.8899 432.079 68.7081L441.162 57.8525C439.662 56.9574 438.742 55.3405 438.74 53.5938ZM430.416 66.2398C429.985 66.6711 429.286 66.6712 428.854 66.24 428.423 65.8089 428.423 65.1098 428.854 64.6785 429.285 64.2472 429.984 64.2471 430.416 64.6783 430.416 64.6783 430.416 64.6784 430.416 64.6785 430.847 65.1097 430.847 65.8086 430.416 66.2398Z" fill="#FFFFFF"/><path d="M438.74 82.8542 419.969 82.8542C418.749 82.8542 417.76 83.8429 417.76 85.0625L417.76 87.2708 440.948 87.2708 440.948 85.0625C440.948 83.8429 439.959 82.8542 438.74 82.8542Z" fill="#FFFFFF"/><path d="M443.708 50.2812C441.879 50.2812 440.396 51.7643 440.396 53.5938 440.396 55.4232 441.879 56.9062 443.708 56.9062 445.538 56.9062 447.021 55.4232 447.021 53.5938 447.021 51.7643 445.538 50.2812 443.708 50.2812ZM443.708 54.4219C443.251 54.4219 442.88 54.0511 442.88 53.5938 442.88 53.1364 443.251 52.7656 443.708 52.7656 444.166 52.7656 444.536 53.1364 444.536 53.5938 444.536 54.0511 444.166 54.4219 443.708 54.4219Z" fill="#FFFFFF"/></g></svg>