<svg width="85" height="91" xmlns="http://www.w3.org/2000/svg" xmlns:xlink="http://www.w3.org/1999/xlink" xml:space="preserve" overflow="hidden"><g transform="translate(-691 -97)"><path d="M61.0938 58.4375 61.0938 42.3433 39.9987 53.2817 39.9987 42.3433 18.9054 53.2817 16.5573 21.25 10.3116 21.25 7.96875 53.2817 7.96875 74.375 77.0312 74.375 77.0312 58.4375ZM23.5928 68.9058 14.218 68.9058 14.218 61.8747 23.5928 61.8747ZM39.2178 68.9058 29.843 68.9058 29.843 61.8747 39.2178 61.8747ZM54.8427 68.9058 45.4679 68.9058 45.4679 61.8747 54.8427 61.8747Z" fill="#FFFFFF" transform="matrix(1 0 0 1.07059 691 97)"/><path d="M27.625 12.827C26.9804 13.4227 25.9861 13.4227 25.3415 12.827 23.9789 11.5514 22.1752 10.8533 20.3088 10.8791L19.6509 10.8924C15.3403 10.7798 11.7499 14.1737 11.6202 18.484L11.6202 19.4792 15.215 19.4792 15.215 18.9054C15.1776 16.964 16.6971 15.3478 18.6371 15.2655L19.125 15.2292C20.601 15.0444 22.0833 15.5211 23.1749 16.5316L25.7222 18.9453C27.0262 20.1564 28.7932 20.7393 30.5619 20.5417 30.6691 21.6421 31.1726 22.666 31.9786 23.4228 34.0936 25.2995 37.2959 25.2351 39.3338 23.2749 39.6389 22.9855 39.9079 22.6603 40.1351 22.3063 42.4299 22.9739 44.9067 22.3778 46.6464 20.7391 49.0294 18.6358 49.2562 14.9989 47.1529 12.6158 47.0519 12.5015 46.9465 12.3911 46.8368 12.2852 44.2659 10.003 40.3726 10.0801 37.8941 12.4622 37.2435 13.0487 36.2549 13.0487 35.6044 12.4622 33.457 10.4773 30.1443 10.4773 27.9969 12.4622Z" fill="#FFFFFF" transform="matrix(1 0 0 1.07059 691 97)"/></g></svg>