<svg width="78" height="56" xmlns="http://www.w3.org/2000/svg" xmlns:xlink="http://www.w3.org/1999/xlink" xml:space="preserve" overflow="hidden"><g transform="translate(-383 -38)"><path d="M52.4067 24.6517C52.4067 20.5683 50.12 14.5833 45.2083 14.5833L34.7083 14.5833C34.4477 14.0595 33.9971 13.6547 33.4483 13.4517 32.8871 13.2246 32.2596 13.2246 31.6983 13.4517 31.2506 13.0453 30.6696 12.8171 30.065 12.81 29.3848 12.8042 28.7332 13.0834 28.2683 13.58 27.6438 13.3058 26.9329 13.3058 26.3083 13.58 25.8435 13.7888 25.4574 14.1402 25.2058 14.5833 25.2058 14.5833 9.75917 14.5833 9.7125 14.6183 6.35833 14.9975 3.79167 19.1975 3.79167 24.5 3.79167 30.0592 6.60917 34.4167 10.2083 34.4167L23.9167 34.4167 23.9167 43.1667 29.75 38.6458 35.5833 43.1667 35.5833 34.4167 49.2917 34.4167C49.936 34.4167 50.4583 33.8943 50.4583 33.25 50.4583 32.6056 49.936 32.0833 49.2917 32.0833 47.6019 32.1593 46.1683 30.8559 46.0833 29.1667L49.5833 29.1667C50.9483 29.1667 52.4067 28 52.4067 24.6517ZM29.9483 17.0217C32.777 17.0217 35.07 19.3147 35.0699 22.1434 35.0699 24.972 32.7769 27.2651 29.9482 27.265 27.1287 27.2649 24.8395 24.9861 24.8267 22.1667 24.8138 19.3381 27.0964 17.0346 29.9249 17.0217 29.9328 17.0217 29.9405 17.0217 29.9483 17.0217ZM22.785 16.9167C22.7734 17.0642 22.7734 17.2125 22.785 17.36 21.5389 17.8504 20.9235 19.2558 21.4083 20.5042 20.9883 20.9568 20.7513 21.5492 20.7433 22.1667 20.7504 22.8306 21.0286 23.4629 21.5133 23.9167 21.2395 24.5393 21.2395 25.2482 21.5133 25.8708 21.6739 26.2481 21.9266 26.5791 22.2483 26.8333L15.7033 26.8333C16.1118 25.9148 16.3263 24.9219 16.3333 23.9167 16.3333 21 15.6217 18.5733 14.4258 16.9167ZM10.2083 32.0833C8.23667 32.0833 6.125 29.0383 6.125 24.5 6.125 19.9617 8.23667 16.9167 10.2083 16.9167 12.4075 16.9167 14 19.8333 14 23.9167 14 23.9167 13.9592 26.8333 12.25 26.8333 11.4217 26.8333 10.5 25.4625 10.5 23.625 10.4971 23.2328 10.5382 22.8414 10.6225 22.4583 10.7626 21.8285 10.3657 21.2043 9.73583 21.0642 9.10601 20.924 8.48178 21.321 8.34167 21.9508 8.2222 22.5008 8.16352 23.0622 8.16667 23.625 8.16667 26.7342 9.96333 29.1667 12.25 29.1667L23.9167 29.1667 23.9167 32.0833ZM29.75 35.6942 26.25 38.4067 26.25 30.6192C26.3852 30.7038 26.5277 30.776 26.6758 30.835 27.2386 31.0538 27.863 31.0538 28.4258 30.835 28.8755 31.2524 29.4633 31.4892 30.0767 31.5 30.7563 31.503 31.4068 31.2242 31.8733 30.73 32.3077 30.9127 32.7849 30.9693 33.25 30.8933L33.25 38.4067ZM35.5833 32.0833 35.5833 29.3708C35.7608 29.32 35.9328 29.2517 36.0967 29.1667L43.75 29.1667C43.7501 30.2132 44.0785 31.2334 44.6892 32.0833ZM37.5667 26.8333C38.1204 26.5772 38.5517 26.1144 38.7683 25.5442 38.9854 24.981 38.9854 24.3573 38.7683 23.7942 39.1805 23.3501 39.4096 22.7667 39.41 22.1608 39.413 21.4812 39.1342 20.8307 38.64 20.3642 38.9113 19.739 38.9113 19.0293 38.64 18.4042 38.3994 17.8413 37.9498 17.3938 37.3858 17.1558 37.3752 17.0747 37.3576 16.9948 37.3333 16.9167L45.2083 16.9167C47.5417 16.9167 49.0467 19.4542 49.6825 21.8283 50.4233 24.6167 49.9333 26.6292 49.5833 26.8333Z" fill="#FFFFFF" transform="matrix(1.39286 0 0 1 383 38)"/></g></svg>