<svg width="53" height="58" xmlns="http://www.w3.org/2000/svg" xmlns:xlink="http://www.w3.org/1999/xlink" xml:space="preserve" overflow="hidden"><g transform="translate(-684 -107)"><path d="M45.326 12.6427 41.4062 11.5938 40.3573 7.67396 45.326 2.70521C42.3448 1.60104 39.0323 2.20833 36.6583 4.36146 34.3396 6.51458 33.3458 9.77188 34.2292 12.8083L12.8083 34.2292C9.77188 33.401 6.51458 34.3948 4.41667 36.7135 2.31875 39.0323 1.65625 42.3448 2.76042 45.326L7.72917 40.3573 11.5938 41.4062 12.6427 45.326 7.67396 50.2948C10.6552 51.399 13.9677 50.7917 16.3417 48.6385 18.6604 46.4854 19.6542 43.2281 18.7708 40.1917L40.1917 18.7708C43.2281 19.599 46.4854 18.6052 48.5833 16.2865 50.6813 13.9677 51.3438 10.6552 50.2396 7.67396L45.326 12.6427Z" fill="#FFFFFF" transform="matrix(1 0 0 1.09434 684 107)"/></g></svg>