<svg width="55" height="53" xmlns="http://www.w3.org/2000/svg" xmlns:xlink="http://www.w3.org/1999/xlink" xml:space="preserve" overflow="hidden"><g transform="translate(-35 -100)"><path d="M17.2162 28.3373C14.944 29.1036 12.8147 30.2416 10.9152 31.705 9.62535 32.7124 8.86011 34.249 8.83333 35.8854L8.83333 45.5855 9.32469 45.9135C10.4719 46.6781 12.4544 47.2788 14.9062 47.7188L14.9062 44.1667 25.3958 44.1667 25.3958 48.6093C25.8143 48.6155 26.2333 48.6188 26.6529 48.6192 26.9704 48.6192 27.2873 48.6154 27.6042 48.612L27.6042 44.1667 38.0938 44.1667 38.0938 47.7585C40.6389 47.308 42.6517 46.6814 43.725 45.8781L44.1667 45.5469 44.1667 35.8622C44.1373 34.2414 43.3806 32.7197 42.1057 31.7183 40.2075 30.2539 38.0796 29.1142 35.8087 28.3456L32.3664 26.9654C32.1584 26.8815 32.0218 26.6801 32.0208 26.4558L32.0208 25.1043C34.1139 23.4317 35.3328 20.8981 35.3333 18.2188L35.3333 14.3542 35.8854 14.3542C36.4952 14.3542 36.9896 13.8598 36.9896 13.25 36.9896 12.6402 36.4952 12.1458 35.8854 12.1458L35.3333 12.1458C35.1411 9.09706 33.3873 6.36403 30.6958 4.91906L29.8125 8.41375C29.7502 8.66616 29.5203 8.8409 29.2604 8.83333L29.1279 8.83333C28.8295 8.77089 28.6381 8.47834 28.7005 8.17994 28.7005 8.17983 28.7006 8.17978 28.7006 8.17967 28.7006 8.16918 28.7056 8.15924 28.7083 8.14875L29.7573 4.01365C29.5733 3.28013 28.9158 2.76441 28.1596 2.76042L24.8471 2.76042C24.0896 2.7629 23.4304 3.27894 23.246 4.01365L24.295 8.14875C24.375 8.44246 24.2021 8.7455 23.9085 8.82616L23.8754 8.83333 23.7429 8.83333C23.483 8.8409 23.2531 8.66616 23.1908 8.41375L22.3351 4.91906C19.6436 6.36403 17.8898 9.09706 17.6976 12.1458L17.1179 12.1458C16.5081 12.1458 16.0137 12.6402 16.0137 13.25 16.0137 13.8598 16.5081 14.3542 17.1179 14.3542L17.67 14.3542 17.67 18.2188C17.6708 20.896 18.888 23.4279 20.9786 25.1005L20.9786 26.4558C20.9796 26.6789 20.8453 26.8803 20.6391 26.9654ZM19.875 18.2188 19.875 14.3542 33.125 14.3542 33.125 18.2188C33.125 21.8776 30.1589 24.8438 26.5 24.8438 22.8411 24.8438 19.875 21.8776 19.875 18.2188ZM25.3958 41.9583 15.0818 41.9583 16.8142 30.904 21.4722 29.0098C21.5053 28.996 21.5346 28.9772 21.5671 28.9623L25.3986 38.0938ZM26.5 29.2604C25.016 29.275 23.5385 29.0626 22.1187 28.6305 22.7927 28.1104 23.1874 27.3072 23.1875 26.4558L23.1875 26.4006C25.3115 27.2685 27.6912 27.2685 29.8153 26.4006L29.8153 26.4558C29.8144 27.3111 30.2128 28.1178 30.8924 28.6371 29.4682 29.066 27.9873 29.2762 26.5 29.2604ZM27.6042 41.9583 27.6042 38.0938 31.4345 28.9651C31.4671 28.98 31.4969 28.9993 31.5306 29.0131L36.2233 30.8902 37.9281 41.9583Z" fill="#FFFFFF" transform="matrix(1.03774 0 0 1 35 100)"/></g></svg>